<svg width="17" height="17" viewBox="0 0 17 17" fill="none" xmlns="http://www.w3.org/2000/svg">
<path d="M8.02084 12.8125H8.97918V8.97916H12.8125V8.02083H8.97918V4.18749H8.02084V8.02083H4.18751V8.97916H8.02084V12.8125ZM2.38105 16.1667C1.94022 16.1667 1.57222 16.0191 1.27705 15.7239C0.981246 15.4281 0.833344 15.0598 0.833344 14.619V2.38104C0.833344 1.9402 0.981246 1.5722 1.27705 1.27704C1.57222 0.981231 1.94022 0.833328 2.38105 0.833328H14.619C15.0598 0.833328 15.4278 0.981231 15.723 1.27704C16.0188 1.5722 16.1667 1.9402 16.1667 2.38104V14.619C16.1667 15.0598 16.0191 15.4278 15.7239 15.723C15.4281 16.0188 15.0598 16.1667 14.619 16.1667H2.38105ZM2.38105 15.2083H14.619C14.7659 15.2083 14.901 15.147 15.0243 15.0243C15.147 14.901 15.2083 14.7659 15.2083 14.619V2.38104C15.2083 2.23409 15.147 2.09897 15.0243 1.97566C14.901 1.85299 14.7659 1.79166 14.619 1.79166H2.38105C2.23411 1.79166 2.09898 1.85299 1.97568 1.97566C1.85301 2.09897 1.79168 2.23409 1.79168 2.38104V14.619C1.79168 14.7659 1.85301 14.901 1.97568 15.0243C2.09898 15.147 2.23411 15.2083 2.38105 15.2083Z" fill="white"/>
</svg>
