<svg width="21" height="21" viewBox="0 0 21 21" fill="none" xmlns="http://www.w3.org/2000/svg">
<path d="M12.8885 6.67989L10.2605 9.30789L7.63248 6.67989L6.2018 8.11057L8.8298 10.7386L6.2018 13.3666L7.63248 14.7973L10.2605 12.1693L12.8885 14.7973L14.3192 13.3666L11.6912 10.7386L14.3192 8.11057L12.8885 6.67989ZM10.2605 0.591858C4.64935 0.591858 0.11377 5.12744 0.11377 10.7386C0.11377 16.3497 4.64935 20.8853 10.2605 20.8853C15.8716 20.8853 20.4072 16.3497 20.4072 10.7386C20.4072 5.12744 15.8716 0.591858 10.2605 0.591858ZM10.2605 18.8559C5.78578 18.8559 2.14311 15.2133 2.14311 10.7386C2.14311 6.26387 5.78578 2.6212 10.2605 2.6212C14.7352 2.6212 18.3779 6.26387 18.3779 10.7386C18.3779 15.2133 14.7352 18.8559 10.2605 18.8559Z" fill="#858585"/>
</svg>
