<svg width="17" height="20" viewBox="0 0 17 20" fill="none" xmlns="http://www.w3.org/2000/svg">
<path d="M16.5 3.74984H15.25V18.1248C15.25 18.3853 15.2012 18.6294 15.1035 18.8573C15.0059 19.0851 14.8724 19.2837 14.7031 19.453C14.5339 19.6222 14.3353 19.7557 14.1074 19.8534C13.8796 19.951 13.6354 19.9998 13.375 19.9998H3.375C3.11458 19.9998 2.87044 19.951 2.64258 19.8534C2.41471 19.7557 2.21615 19.6222 2.04688 19.453C1.8776 19.2837 1.74414 19.0851 1.64648 18.8573C1.54883 18.6294 1.5 18.3853 1.5 18.1248V3.74984H0.25V2.49984H5.25V1.24984C5.25 1.07406 5.28255 0.911296 5.34766 0.761556C5.41276 0.611816 5.50065 0.481608 5.61133 0.370931C5.72201 0.260254 5.85547 0.169108 6.01172 0.0974935C6.16797 0.0258789 6.33073 -0.00667318 6.5 -0.00016276H10.25C10.4258 -0.00016276 10.5885 0.0323893 10.7383 0.0974935C10.888 0.162598 11.0182 0.250488 11.1289 0.361165C11.2396 0.471842 11.3307 0.605306 11.4023 0.761556C11.474 0.917806 11.5065 1.08057 11.5 1.24984V2.49984H16.5V3.74984ZM6.5 2.49984H10.25V1.24984H6.5V2.49984ZM14 3.74984H2.75V18.1248C2.75 18.2941 2.81185 18.4406 2.93555 18.5643C3.05924 18.688 3.20573 18.7498 3.375 18.7498H13.375C13.5443 18.7498 13.6908 18.688 13.8145 18.5643C13.9382 18.4406 14 18.2941 14 18.1248V3.74984ZM6.5 16.2498H5.25V6.24984H6.5V16.2498ZM9 16.2498H7.75V6.24984H9V16.2498ZM11.5 16.2498H10.25V6.24984H11.5V16.2498Z" fill="#FF7171"/>
</svg>
