<svg width="16" height="16" viewBox="0 0 16 16" fill="none" xmlns="http://www.w3.org/2000/svg">
<path fill-rule="evenodd" clip-rule="evenodd" d="M0 2.4C0 1.76348 0.252856 1.15303 0.702944 0.702944C1.15303 0.252856 1.76348 0 2.4 0H13.6C14.2365 0 14.847 0.252856 15.2971 0.702944C15.7471 1.15303 16 1.76348 16 2.4V7.6C15.9999 7.66748 15.9913 7.73468 15.9744 7.8C15.9913 7.86532 15.9999 7.93252 16 8V13.6C16 14.2365 15.7471 14.847 15.2971 15.2971C14.847 15.7471 14.2365 16 13.6 16H2.4C1.76348 16 1.15303 15.7471 0.702944 15.2971C0.252856 14.847 0 14.2365 0 13.6V11.2C6.42366e-05 11.1325 0.00866592 11.0653 0.0256001 11C0.00868276 10.9347 8.1345e-05 10.8675 0 10.8V2.4ZM2.3952 10.264C2.1168 10.2688 1.8512 10.2816 1.6 10.3008V2.4C1.6 2.18783 1.68429 1.98434 1.83431 1.83431C1.98434 1.68429 2.18783 1.6 2.4 1.6H13.6C13.8122 1.6 14.0157 1.68429 14.1657 1.83431C14.3157 1.98434 14.4 2.18783 14.4 2.4V7.2128C10.9624 7.324 8.48 8.152 6.736 9.3112C7.3968 9.5456 8.136 9.8792 8.8608 10.316C9.98 10.988 11.1176 11.932 11.8832 13.1824C11.938 13.272 11.9747 13.3716 11.9911 13.4753C12.0074 13.5791 12.0032 13.6851 11.9786 13.7872C11.954 13.8894 11.9096 13.9857 11.8478 14.0706C11.7859 14.1556 11.708 14.2276 11.6184 14.2824C11.5288 14.3372 11.4292 14.3739 11.3255 14.3903C11.2217 14.4066 11.1157 14.4024 11.0136 14.3778C10.9114 14.3532 10.8151 14.3088 10.7302 14.247C10.6452 14.1852 10.5732 14.1072 10.5184 14.0176C9.9296 13.0552 9.016 12.2752 8.0368 11.6872C7.0592 11.1 6.0648 10.7336 5.3752 10.5736C4.40377 10.3518 3.4091 10.2481 2.4128 10.2648H2.3952V10.264ZM3.9824 3.5904C4.33897 3.33917 4.76382 3.20295 5.2 3.2C5.528 3.2 6.0024 3.292 6.4176 3.5904C6.8736 3.9184 7.2 4.4592 7.2 5.2C7.2 5.9408 6.8736 6.4808 6.4176 6.8088C6.06112 7.06031 5.63626 7.19681 5.2 7.2C4.872 7.2 4.3976 7.108 3.9824 6.8088C3.5264 6.4808 3.2 5.9416 3.2 5.2C3.2 4.4592 3.5264 3.9192 3.9824 3.5904Z" fill="#043D59"/>
</svg>
