<svg width="21" height="19" viewBox="0 0 21 19" fill="none" xmlns="http://www.w3.org/2000/svg">
<path fill-rule="evenodd" clip-rule="evenodd" d="M19.1245 11.4932C19.1245 11.8895 19.4543 12.2113 19.8607 12.2113C20.267 12.2113 20.5968 11.8895 20.5968 11.4932V4.39126C20.5968 2.11007 18.6943 0.25415 16.3548 0.25415H11.6958C9.35154 0.25415 7.44418 2.11473 7.44418 4.40151V5.26978C7.44418 5.66522 7.77402 5.98697 8.18035 5.98697C8.58668 5.98697 8.91653 5.66522 8.91653 5.26978V4.40151C8.91653 2.90559 10.1632 1.69039 11.6958 1.69039H16.3548C17.8826 1.69039 19.1245 2.90279 19.1245 4.39126V11.4932ZM8.9166 13.8911C8.9166 13.4948 8.58676 13.173 8.18043 13.173C7.7741 13.173 7.44425 13.4948 7.44425 13.8911V14.7687C7.44425 17.0499 9.34683 18.9058 11.6863 18.9058H16.3462C18.6896 18.9058 20.5969 17.0452 20.5969 14.7585C20.5969 14.3621 20.2671 14.0413 19.8607 14.0413C19.4544 14.0413 19.1246 14.3621 19.1246 14.7585C19.1246 16.2544 17.8779 17.4696 16.3462 17.4696H11.6863C10.1585 17.4696 8.9166 16.2581 8.9166 14.7687V13.8911ZM1.01917 9.30597C1.13294 9.03645 1.40159 8.86111 1.69989 8.86111H13.1861C13.5925 8.86111 13.9233 9.1838 13.9233 9.58016C13.9233 9.97653 13.5925 10.2983 13.1861 10.2983H3.482L5.01267 11.7849C5.30141 12.0647 5.30141 12.5189 5.01459 12.8005C4.87118 12.9413 4.68187 13.0122 4.49353 13.0122C4.30518 13.0122 4.11779 12.9413 3.97343 12.8024L1.17979 10.0894C0.969451 9.8842 0.905392 9.57457 1.01917 9.30597ZM3.78893 8.26525C3.97632 8.26525 4.16371 8.1953 4.30712 8.05728L5.01175 7.3774C5.30048 7.09854 5.30239 6.64342 5.01653 6.3627C4.72971 6.07919 4.26506 6.07732 3.97537 6.35711L3.2717 7.03606C2.98201 7.31584 2.9801 7.77003 3.26596 8.05168C3.41033 8.19344 3.59963 8.26525 3.78893 8.26525Z" fill="white"/>
</svg>
