<svg width="24" height="15" viewBox="0 0 24 15" fill="none" xmlns="http://www.w3.org/2000/svg">
<path d="M0 15V12.6923H12V15H0ZM0 9.23077V6.92308H6V9.23077H0ZM0 3.46154V1.15385H6V3.46154H0ZM22.32 15L17.7 10.5577C17.22 10.8846 16.6952 11.13 16.1256 11.2938C15.556 11.4577 14.9808 11.5392 14.4 11.5385C12.74 11.5385 11.3252 10.9758 10.1556 9.85038C8.986 8.725 8.4008 7.36462 8.4 5.76923C8.4 4.17308 8.9852 2.81269 10.1556 1.68808C11.326 0.563461 12.7408 0.000769231 14.4 0C16.06 0 17.4752 0.562692 18.6456 1.68808C19.816 2.81346 20.4008 4.17385 20.4 5.76923C20.4 6.32692 20.3148 6.88 20.1444 7.42846C19.974 7.97692 19.7192 8.48154 19.38 8.94231L24 13.3846L22.32 15ZM14.4 9.23077C15.4 9.23077 16.25 8.89423 16.95 8.22115C17.65 7.54808 18 6.73077 18 5.76923C18 4.80769 17.65 3.99038 16.95 3.31731C16.25 2.64423 15.4 2.30769 14.4 2.30769C13.4 2.30769 12.55 2.64423 11.85 3.31731C11.15 3.99038 10.8 4.80769 10.8 5.76923C10.8 6.73077 11.15 7.54808 11.85 8.22115C12.55 8.89423 13.4 9.23077 14.4 9.23077Z" fill="white"/>
</svg>
