<svg width="20" height="19" viewBox="0 0 20 19" fill="none" xmlns="http://www.w3.org/2000/svg">
<path d="M7.26258 18.979L6.86463 16.0861C6.64908 16.0108 6.44612 15.9204 6.25577 15.8149C6.06542 15.7095 5.87871 15.5964 5.69566 15.4759L2.7359 16.6059L0 12.3118L2.5618 10.549C2.54522 10.4435 2.53693 10.342 2.53693 10.2443V9.63412C2.53693 9.53589 2.54522 9.43403 2.5618 9.32856L0 7.56572L2.7359 3.27162L5.69566 4.40164C5.87805 4.28111 6.06873 4.16811 6.26771 4.06264C6.46668 3.95717 6.66566 3.86676 6.86463 3.79143L7.26258 0.89856H12.7344L13.1323 3.79143C13.3479 3.86676 13.5512 3.95717 13.7422 4.06264C13.9332 4.16811 14.1196 4.28111 14.3013 4.40164L17.2611 3.27162L19.997 7.56572L17.4352 9.32856C17.4518 9.43403 17.46 9.53589 17.46 9.63412V10.2434C17.46 10.3417 17.4435 10.4435 17.4103 10.549L19.9721 12.3118L17.2362 16.6059L14.3013 15.4759C14.1189 15.5964 13.9282 15.7095 13.7293 15.8149C13.5303 15.9204 13.3313 16.0108 13.1323 16.0861L12.7344 18.979H7.26258ZM10.0482 13.1029C11.0099 13.1029 11.8307 12.794 12.5105 12.1762C13.1904 11.5585 13.5303 10.8127 13.5303 9.93878C13.5303 9.06489 13.1904 8.31907 12.5105 7.70132C11.8307 7.08358 11.0099 6.7747 10.0482 6.7747C9.06994 6.7747 8.24486 7.08358 7.57299 7.70132C6.90111 8.31907 6.56551 9.06489 6.56617 9.93878C6.56617 10.8127 6.90211 11.5585 7.57398 12.1762C8.24585 12.794 9.0706 13.1029 10.0482 13.1029Z" fill="white"/>
</svg>
